# xmcd
#
# Track frame offsets:
#	150
#	15490
#	38855
#	55515
#	80685
#	103736
#	120774
#	137904
#	141707
#
# Disc length: 2224 seconds
#
# Revision: 0
# Processed by: cddbd v1.5PL3 Copyright (c) Steve Scherf et al.
# Submitted via: audiograbber 1.82.00
#
DISCID=7508ae09
DTITLE=Blodwyn Pig - Ahead Rings Out
DYEAR=1969
DGENRE=
TTITLE0=It's Only Love
TTITLE1=Dear Jill
TTITLE2=Walk On The Water
TTITLE3=The Modern Alchemist
TTITLE4=See My Way
TTITLE5=Summer Day
TTITLE6=Change Song
TTITLE7=Backwash
TTITLE8=Ain't Ya Comin' Home?
EXTD=
EXTT0=
EXTT1=
EXTT2=
EXTT3=
EXTT4=
EXTT5=
EXTT6=
EXTT7=
EXTT8=
PLAYORDER=
